<svg xmlns="http://www.w3.org/2000/svg" width="1200" height="720" viewBox="0 0 1200 720">
<style>text{font-family:Arial,sans-serif;fill:#1f2937}.small{font-size:14px}.label{font-size:16px;font-weight:600}.title{font-size:24px;font-weight:700}.tick{font-size:13px;fill:#4b5563}</style>
<rect x="0" y="0" width="1200" height="720" fill="#ffffff" />
<text class="title" x="90" y="30">Decoder Pretraining Loss Curves</text>
<text class="small" x="90" y="55">train: 100-step mean, validation: raw checkpoints, resume marker at step 29028</text>
<line x1="90" y1="649.65" x2="1160" y2="649.65" stroke="#e5e7eb" stroke-width="1" />
<text class="tick" x="78" y="653.65" text-anchor="end">2.03</text>
<line x1="90" y1="548.82" x2="1160" y2="548.82" stroke="#e5e7eb" stroke-width="1" />
<text class="tick" x="78" y="552.82" text-anchor="end">2.93</text>
<line x1="90" y1="446.86" x2="1160" y2="446.86" stroke="#e5e7eb" stroke-width="1" />
<text class="tick" x="78" y="450.86" text-anchor="end">3.84</text>
<line x1="90" y1="344.90" x2="1160" y2="344.90" stroke="#e5e7eb" stroke-width="1" />
<text class="tick" x="78" y="348.90" text-anchor="end">4.75</text>
<line x1="90" y1="242.95" x2="1160" y2="242.95" stroke="#e5e7eb" stroke-width="1" />
<text class="tick" x="78" y="246.95" text-anchor="end">5.66</text>
<line x1="90" y1="142.11" x2="1160" y2="142.11" stroke="#e5e7eb" stroke-width="1" />
<text class="tick" x="78" y="146.11" text-anchor="end">6.56</text>
<line x1="90" y1="40.16" x2="1160" y2="40.16" stroke="#e5e7eb" stroke-width="1" />
<text class="tick" x="78" y="44.16" text-anchor="end">7.47</text>
<line x1="207.40" y1="40" x2="207.40" y2="650" stroke="#e5e7eb" stroke-width="1" />
<text class="tick" x="207.40" y="672" text-anchor="middle">10000</text>
<line x1="324.81" y1="40" x2="324.81" y2="650" stroke="#e5e7eb" stroke-width="1" />
<text class="tick" x="324.81" y="672" text-anchor="middle">20000</text>
<line x1="442.22" y1="40" x2="442.22" y2="650" stroke="#e5e7eb" stroke-width="1" />
<text class="tick" x="442.22" y="672" text-anchor="middle">30000</text>
<line x1="677.04" y1="40" x2="677.04" y2="650" stroke="#e5e7eb" stroke-width="1" />
<text class="tick" x="677.04" y="672" text-anchor="middle">50000</text>
<line x1="911.85" y1="40" x2="911.85" y2="650" stroke="#e5e7eb" stroke-width="1" />
<text class="tick" x="911.85" y="672" text-anchor="middle">70000</text>
<line x1="1146.67" y1="40" x2="1146.67" y2="650" stroke="#e5e7eb" stroke-width="1" />
<text class="tick" x="1146.67" y="672" text-anchor="middle">90000</text>
<line x1="90" y1="40" x2="90" y2="650" stroke="#111827" stroke-width="1.5" />
<line x1="90" y1="650" x2="1160" y2="650" stroke="#111827" stroke-width="1.5" />
<text class="label" x="600.00" y="702" text-anchor="middle">Training step</text>
<text class="label" transform="translate(24,360.00) rotate(-90)" text-anchor="middle">Cross-entropy loss</text>
<line x1="430.80" y1="40" x2="430.80" y2="650" stroke="#9ca3af" stroke-width="2" stroke-dasharray="8 6" />
<text class="small" x="438.80" y="70" fill="#6b7280">resume</text>
<polyline fill="none" stroke="#2563eb" stroke-width="3" points="91.16,40.00 92.34,98.77 93.51,163.41 94.68,214.53 95.86,259.27 97.03,297.68 98.21,320.14 99.38,343.01 100.56,344.69 101.73,365.77 102.90,386.10 104.08,397.64 105.25,405.60 106.43,421.34 107.60,419.32 108.77,429.09 109.95,443.05 111.12,445.76 112.30,461.89 113.47,460.40 114.64,470.16 115.82,473.97 116.99,476.58 118.17,483.67 119.34,486.19 120.51,490.02 121.69,491.89 122.86,497.01 124.04,509.56 125.21,504.65 126.39,512.72 127.56,513.07 128.73,519.09 129.91,522.87 131.08,526.84 132.26,527.19 133.43,528.50 134.60,539.65 135.78,546.39 136.95,542.99 138.13,542.12 139.30,540.25 140.47,542.22 141.65,547.02 142.82,550.37 144.00,552.76 145.17,551.77 146.34,553.90 147.52,552.76 148.69,557.44 149.87,557.09 151.04,554.93 152.22,562.31 153.39,558.73 154.56,565.09 155.74,562.80 156.91,562.01 158.09,562.46 159.26,563.45 160.43,566.90 161.61,565.66 162.78,571.16 163.96,563.34 165.13,572.35 166.30,567.71 167.48,572.17 168.65,577.01 169.83,578.32 171.00,570.35 172.17,567.20 173.35,577.65 174.52,579.04 175.70,574.51 176.87,578.04 178.05,586.57 179.22,589.74 180.39,587.76 181.57,585.50 182.74,581.30 183.92,585.48 185.09,585.57 186.26,587.56 187.44,589.48 188.61,589.05 189.79,586.01 190.96,584.94 192.13,583.70 193.31,590.20 194.48,589.98 195.66,582.23 196.83,584.64 198.01,588.94 199.18,592.26 200.35,587.13 201.53,587.11 202.70,590.82 203.88,588.78 205.05,594.39 206.22,589.90 207.40,588.68 208.57,588.79 209.75,596.87 210.92,589.91 212.09,588.43 213.27,594.15 214.44,591.02 215.62,592.51 216.79,587.16 217.96,593.37 219.14,592.00 220.31,593.97 221.49,601.17 222.66,599.11 223.84,597.25 225.01,598.05 226.18,604.39 227.36,602.76 228.53,599.70 229.71,596.44 230.88,602.81 232.05,603.68 233.23,605.20 234.40,603.07 235.58,601.14 236.75,595.90 237.92,598.72 239.10,601.21 240.27,599.65 241.45,602.30 242.62,602.14 243.79,601.19 244.97,595.12 246.14,600.19 247.32,605.14 248.49,598.39 249.67,602.89 250.84,598.24 252.01,599.40 253.19,608.01 254.36,599.35 255.54,603.29 256.71,598.94 257.88,607.81 259.06,604.31 260.23,602.03 261.41,597.69 262.58,610.51 263.75,607.02 264.93,618.78 266.10,609.40 267.28,609.59 268.45,608.63 269.62,616.64 270.80,607.10 271.97,610.43 273.15,603.22 274.32,606.49 275.50,607.99 276.67,603.60 277.84,603.38 279.02,610.54 280.19,606.51 281.37,606.66 282.54,608.31 283.71,614.17 284.89,606.80 286.06,609.15 287.24,607.73 288.41,608.56 289.58,607.88 290.76,609.04 291.93,608.99 293.11,606.25 294.28,603.90 295.45,611.97 296.63,611.07 297.80,608.97 298.98,611.75 300.15,607.70 301.33,607.49 302.50,612.56 303.67,615.69 304.85,615.52 306.02,612.71 307.20,612.02 308.37,616.31 309.54,618.43 310.72,612.44 311.89,614.70 313.07,609.68 314.24,609.86 315.41,619.22 316.59,624.19 317.76,612.29 318.94,614.33 320.11,618.40 321.29,614.08 322.46,614.34 323.63,613.91 324.81,616.46 325.98,609.24 327.16,611.22 328.33,610.39 329.50,610.41 330.68,613.71 331.85,619.61 333.03,620.54 334.20,615.53 335.37,613.01 336.55,615.49 337.72,611.61 338.90,621.63 340.07,607.88 341.24,613.30 342.42,612.84 343.59,618.46 344.77,612.13 345.94,621.45 347.12,614.01 348.29,613.11 349.46,611.64 350.64,623.54 351.81,623.32 352.99,614.69 354.16,624.52 355.33,623.69 356.51,617.83 357.68,616.09 358.86,616.01 360.03,614.87 361.20,620.89 362.38,613.42 363.55,620.58 364.73,618.43 365.90,615.72 367.07,619.11 368.25,618.64 369.42,618.42 370.60,615.91 371.77,621.89 372.95,619.76 374.12,614.64 375.29,619.45 376.47,615.87 377.64,618.20 378.82,623.32 379.99,617.55 381.16,619.43 382.34,622.80 383.51,619.56 384.69,621.42 385.86,615.07 387.03,620.74 388.21,615.07 389.38,613.64 390.56,620.29 391.73,615.64 392.90,619.68 394.08,624.85 395.25,630.33 396.43,625.38 397.60,621.28 398.78,623.59 399.95,621.79 401.12,618.35 402.30,632.55 403.47,621.49 404.65,622.77 405.82,616.18 406.99,628.02 408.17,627.08 409.34,615.69 410.52,621.92 411.69,623.63 412.86,618.27 414.04,619.18 415.21,623.46 416.39,619.91 417.56,620.52 418.73,620.32 419.91,625.02 421.08,620.94 422.26,623.51 423.43,619.05 424.61,620.03 425.78,619.08 426.95,619.54 428.13,620.34 429.30,616.56 430.48,623.57 431.65,627.36 432.82,622.91 434.00,623.43 435.17,625.67 436.35,622.68 437.52,625.34 438.69,629.28 439.87,626.09 441.04,622.27 442.22,623.32 443.39,627.31 444.57,626.48 445.74,624.76 446.91,623.55 448.09,623.92 449.26,622.01 450.44,625.39 451.61,619.61 452.78,626.96 453.96,625.00 455.13,631.64 456.31,625.26 457.48,622.25 458.65,620.27 459.83,620.21 461.00,622.67 462.18,622.93 463.35,619.96 464.52,627.84 465.70,621.39 466.87,625.91 468.05,625.32 469.22,623.32 470.40,626.80 471.57,625.27 472.74,620.23 473.92,622.15 475.09,631.55 476.27,632.02 477.44,630.11 478.61,628.47 479.79,625.22 480.96,623.28 482.14,625.89 483.31,624.13 484.48,634.72 485.66,628.23 486.83,625.25 488.01,626.83 489.18,626.71 490.35,624.86 491.53,626.00 492.70,629.52 493.88,625.20 495.05,629.83 496.23,625.07 497.40,625.98 498.57,624.88 499.75,626.44 500.92,623.54 502.10,627.41 503.27,627.07 504.44,624.75 505.62,624.37 506.79,624.77 507.97,625.64 509.14,630.98 510.31,629.56 511.49,623.31 512.66,620.93 513.84,621.89 515.01,630.58 516.18,627.21 517.36,621.71 518.53,634.28 519.71,633.35 520.88,634.44 522.06,630.91 523.23,626.65 524.40,630.75 525.58,631.79 526.75,628.52 527.93,630.44 529.10,635.22 530.27,628.47 531.45,627.11 532.62,625.95 533.80,627.65 534.97,630.40 536.14,626.67 537.32,624.66 538.49,627.83 539.67,632.53 540.84,623.62 542.01,627.70 543.19,629.24 544.36,625.63 545.54,629.97 546.71,628.21 547.89,628.42 549.06,623.41 550.23,631.20 551.41,630.07 552.58,621.92 553.76,628.04 554.93,625.21 556.10,630.64 557.28,622.57 558.45,628.82 559.63,620.37 560.80,628.65 561.97,635.60 563.15,631.61 564.32,628.55 565.50,629.19 566.67,633.50 567.85,634.03 569.02,632.11 570.19,627.47 571.37,631.78 572.54,634.45 573.72,635.02 574.89,634.62 576.06,630.32 577.24,629.57 578.41,624.89 579.59,633.31 580.76,627.69 581.93,630.50 583.11,632.00 584.28,631.40 585.46,623.25 586.63,630.58 587.80,630.18 588.98,626.97 590.15,629.12 591.33,628.45 592.50,625.61 593.68,631.00 594.85,628.35 596.02,629.95 597.20,625.41 598.37,633.51 599.55,630.28 600.72,631.31 601.89,624.80 603.07,629.42 604.24,635.95 605.42,638.63 606.59,638.07 607.76,633.18 608.94,633.38 610.11,637.47 611.29,632.64 612.46,632.45 613.63,632.15 614.81,625.11 615.98,635.08 617.16,624.54 618.33,629.81 619.51,632.25 620.68,629.89 621.85,632.20 623.03,628.67 624.20,635.58 625.38,632.16 626.55,630.83 627.72,633.00 628.90,632.21 630.07,629.40 631.25,630.34 632.42,630.80 633.59,629.77 634.77,625.41 635.94,629.86 637.12,634.49 638.29,632.28 639.46,631.17 640.64,630.92 641.81,628.63 642.99,634.19 644.16,631.44 645.34,635.85 646.51,636.03 647.68,630.81 648.86,637.30 650.03,636.23 651.21,632.90 652.38,634.93 653.55,630.51 654.73,631.59 655.90,634.88 657.08,641.81 658.25,633.18 659.42,634.78 660.60,635.92 661.77,635.44 662.95,633.67 664.12,630.92 665.29,635.87 666.47,626.58 667.64,631.74 668.82,627.94 669.99,631.27 671.17,630.02 672.34,635.61 673.51,642.41 674.69,634.06 675.86,632.54 677.04,632.94 678.21,626.49 679.38,639.16 680.56,628.95 681.73,629.72 682.91,628.50 684.08,635.05 685.25,632.45 686.43,634.67 687.60,633.30 688.78,630.64 689.95,630.11 691.13,635.35 692.30,640.90 693.47,631.22 694.65,640.42 695.82,637.40 697.00,635.87 698.17,632.88 699.34,631.38 700.52,631.08 701.69,638.52 702.87,625.74 704.04,635.83 705.21,634.98 706.39,632.76 707.56,633.02 708.74,635.03 709.91,635.29 711.08,632.57 712.26,636.28 713.43,637.28 714.61,631.77 715.78,631.66 716.96,633.01 718.13,632.73 719.30,635.93 720.48,637.23 721.65,634.10 722.83,637.01 724.00,635.97 725.17,635.76 726.35,630.42 727.52,632.63 728.70,631.81 729.87,626.95 731.04,637.41 732.22,629.27 733.39,633.46 734.57,638.50 735.74,641.47 736.91,640.54 738.09,636.26 739.26,637.25 740.44,636.29 741.61,632.68 742.79,641.52 743.96,638.62 745.13,635.60 746.31,632.07 747.48,638.66 748.66,642.29 749.83,632.39 751.00,634.82 752.18,638.20 753.35,632.37 754.53,631.50 755.70,637.07 756.87,634.15 758.05,633.47 759.22,635.18 760.40,637.67 761.57,633.35 762.74,633.85 763.92,633.12 765.09,632.78 766.27,632.67 767.44,632.66 768.62,634.61 769.79,628.06 770.96,636.89 772.14,636.48 773.31,630.67 774.49,633.35 775.66,634.61 776.83,638.23 778.01,636.02 779.18,640.85 780.36,638.48 781.53,636.71 782.70,640.16 783.88,633.32 785.05,637.29 786.23,638.86 787.40,640.61 788.57,639.68 789.75,635.90 790.92,635.24 792.10,637.25 793.27,638.62 794.45,631.25 795.62,639.63 796.79,634.87 797.97,634.46 799.14,637.27 800.32,632.46 801.49,636.59 802.66,635.22 803.84,632.32 805.01,636.40 806.19,639.30 807.36,636.67 808.53,640.41 809.71,630.06 810.88,636.37 812.06,634.65 813.23,629.28 814.41,630.09 815.58,633.27 816.75,640.60 817.93,629.02 819.10,638.24 820.28,640.02 821.45,636.36 822.62,641.75 823.80,643.88 824.97,641.99 826.15,637.17 827.32,637.52 828.49,632.40 829.67,644.45 830.84,635.52 832.02,639.03 833.19,637.52 834.36,636.35 835.54,633.55 836.71,642.53 837.89,636.34 839.06,636.00 840.24,632.99 841.41,637.84 842.58,633.27 843.76,636.30 844.93,637.42 846.11,635.08 847.28,630.98 848.45,634.89 849.63,637.97 850.80,635.03 851.98,633.32 853.15,635.81 854.32,633.96 855.50,637.52 856.67,640.22 857.85,635.15 859.02,635.04 860.19,633.06 861.37,634.38 862.54,633.52 863.72,634.80 864.89,636.76 866.07,640.37 867.24,642.52 868.41,637.64 869.59,640.48 870.76,632.43 871.94,642.60 873.11,635.75 874.28,639.74 875.46,643.25 876.63,639.75 877.81,639.24 878.98,638.83 880.15,638.35 881.33,635.74 882.50,635.32 883.68,637.86 884.85,636.44 886.02,642.26 887.20,638.25 888.37,638.51 889.55,642.12 890.72,635.42 891.90,634.76 893.07,639.66 894.24,628.95 895.42,632.71 896.59,632.14 897.77,638.83 898.94,643.66 900.11,637.60 901.29,635.90 902.46,639.28 903.64,630.77 904.81,635.61 905.98,640.02 907.16,633.00 908.33,633.96 909.51,637.67 910.68,637.72 911.85,638.85 913.03,637.61 914.20,636.52 915.38,637.68 916.55,636.12 917.73,643.75 918.90,640.17 920.07,641.08 921.25,641.75 922.42,640.04 923.60,637.98 924.77,641.40 925.94,635.85 927.12,639.82 928.29,634.29 929.47,639.34 930.64,641.98 931.81,640.39 932.99,639.30 934.16,640.47 935.34,641.01 936.51,636.62 937.69,640.68 938.86,636.69 940.03,635.16 941.21,637.49 942.38,634.94 943.56,637.07 944.73,636.35 945.90,639.55 947.08,632.72 948.25,641.28 949.43,637.70 950.60,631.70 951.77,645.90 952.95,642.44 954.12,639.45 955.30,645.14 956.47,641.33 957.64,643.64 958.82,637.40 959.99,641.64 961.17,644.15 962.34,636.36 963.52,636.58 964.69,641.95 965.86,640.64 967.04,636.95 968.21,637.04 969.39,642.99 970.56,635.62 971.73,638.07 972.91,642.38 974.08,639.87 975.26,638.89 976.43,633.39 977.60,640.72 978.78,636.13 979.95,637.86 981.13,638.65 982.30,635.17 983.47,639.53 984.65,636.13 985.82,637.26 987.00,637.00 988.17,634.24 989.35,640.00 990.52,639.45 991.69,638.48 992.87,635.09 994.04,637.90 995.22,642.11 996.39,641.12 997.56,642.04 998.74,633.08 999.91,650.00 1001.09,639.00 1002.26,640.09 1003.43,639.95 1004.61,635.45 1005.78,646.48 1006.96,636.73 1008.13,639.12 1009.30,642.20 1010.48,637.43 1011.65,636.35 1012.83,640.58 1014.00,639.00 1015.18,635.90 1016.35,635.56 1017.52,643.48 1018.70,638.88 1019.87,645.06 1021.05,640.20 1022.22,641.75 1023.39,642.62 1024.57,635.39 1025.74,634.28 1026.92,639.81 1028.09,638.73 1029.26,637.65 1030.44,640.44 1031.61,635.63 1032.79,639.72 1033.96,636.23 1035.13,639.06 1036.31,642.24 1037.48,639.03 1038.66,641.88 1039.83,642.48 1041.01,644.92 1042.18,640.57 1043.35,642.17 1044.53,639.11 1045.70,643.46 1046.88,643.64 1048.05,639.08 1049.22,643.26 1050.40,639.94 1051.57,641.52 1052.75,635.01 1053.92,639.89 1055.09,640.70 1056.27,639.83 1057.44,641.89 1058.62,639.28 1059.79,635.73 1060.97,642.44 1062.14,642.88 1063.31,640.47 1064.49,634.74 1065.66,642.37 1066.84,640.20 1068.01,641.64 1069.18,643.01 1070.36,640.29 1071.53,640.66 1072.71,638.82 1073.88,640.38 1075.05,640.91 1076.23,634.75 1077.40,635.06 1078.58,638.88 1079.75,635.76 1080.92,639.17 1082.10,641.52 1083.27,639.75 1084.45,644.10 1085.62,641.69 1086.80,642.15 1087.97,636.15 1089.14,645.95 1090.32,645.34 1091.49,640.35 1092.67,637.21 1093.84,639.01 1095.01,646.37 1096.19,640.01 1097.36,641.06 1098.54,636.88 1099.71,647.45 1100.88,639.19 1102.06,640.81 1103.23,643.14 1104.41,638.60 1105.58,641.23 1106.75,639.46 1107.93,638.64 1109.10,640.00 1110.28,641.40 1111.45,637.75 1112.63,640.61 1113.80,640.87 1114.97,641.07 1116.15,639.37 1117.32,641.01 1118.50,640.23 1119.67,636.44 1120.84,636.91 1122.02,639.75 1123.19,639.71 1124.37,640.84 1125.54,647.69 1126.71,644.55 1127.89,642.81 1129.06,647.11 1130.24,645.06 1131.41,641.11 1132.58,643.35 1133.76,642.17 1134.93,643.81 1136.11,646.37 1137.28,639.09 1138.46,636.89 1139.63,645.91 1140.80,641.19 1141.98,639.77 1143.15,638.18 1144.33,634.40 1145.50,638.13 1146.67,638.97 1147.85,639.79 1149.02,642.11 1150.20,640.42 1151.37,632.81 1152.54,639.32 1153.72,641.24 1154.89,640.11 1156.07,641.94 1157.24,643.61 1158.41,636.03 1159.59,636.76 1160.00,634.17" />
<polyline fill="none" stroke="#dc2626" stroke-width="3" points="95.86,297.62 101.73,390.30 107.60,444.18 113.47,478.96 119.34,505.28 125.21,526.59 131.08,543.79 136.95,555.44 142.82,562.76 148.69,570.54 154.56,575.12 160.43,582.14 166.30,587.08 172.17,592.54 178.05,594.00 183.92,597.21 189.79,599.16 195.66,600.83 201.53,604.01 207.40,603.58 213.27,605.95 219.14,608.82 225.01,608.49 230.88,608.00 236.75,609.73 242.62,611.24 248.49,612.77 254.36,614.46 260.23,614.14 266.10,615.76 271.97,616.75 277.84,617.66 283.71,617.16 289.58,619.48 295.45,619.08 301.33,619.17 307.20,621.17 313.07,621.01 318.94,621.41 324.81,621.80 330.68,622.57 336.55,621.21 342.42,624.88 348.29,623.59 354.16,623.62 360.03,625.55 365.90,625.21 371.77,624.71 377.64,625.91 383.51,625.40 389.38,626.20 395.25,626.62 401.12,626.68 406.99,627.87 412.86,628.22 418.73,629.03 424.61,627.34 430.48,628.78 436.35,625.88 442.22,628.23 448.09,627.92 453.96,629.68 459.83,629.68 465.70,629.67 471.57,631.01 477.44,631.07 483.31,628.65 489.18,629.78 495.05,631.26 500.92,630.60 506.79,631.95 512.66,633.00 518.53,632.15 524.40,631.99 530.27,632.30 536.14,630.91 542.01,631.06 547.89,632.35 553.76,632.23 559.63,634.33 565.50,632.31 571.37,631.71 577.24,631.91 583.11,631.70 588.98,633.35 594.85,633.91 600.72,634.23 606.59,633.21 612.46,632.39 618.33,632.94 624.20,634.39 630.07,634.44 635.94,633.82 641.81,633.62 647.68,633.15 653.55,633.71 659.42,633.23 665.29,633.90 671.17,635.15 677.04,633.83 682.91,635.85 688.78,636.20 694.65,635.43 700.52,636.42 706.39,636.18 712.26,635.38 718.13,635.38 724.00,636.89 729.87,634.25 735.74,635.33 741.61,635.49 747.48,636.36 753.35,636.34 759.22,635.89 765.09,636.15 770.96,637.14 776.83,637.09 782.70,636.86 788.57,636.77 794.45,636.49 800.32,637.07 806.19,636.71 812.06,637.46 817.93,637.16 823.80,637.13 829.67,634.47 835.54,636.37 841.41,636.47 847.28,638.23 853.15,637.35 859.02,637.12 864.89,638.20 870.76,637.18 876.63,637.29 882.50,637.82 888.37,637.58 894.24,637.44 900.11,637.82 905.98,637.97 911.85,637.05 917.73,638.39 923.60,637.76 929.47,638.73 935.34,638.75 941.21,639.48 947.08,639.37 952.95,637.74 958.82,639.24 964.69,638.36 970.56,638.33 976.43,638.61 982.30,638.74 988.17,639.25 994.04,637.65 999.91,638.39 1005.78,637.86 1011.65,638.55 1017.52,639.47 1023.39,639.15 1029.26,639.13 1035.13,639.96 1041.01,638.27 1046.88,639.40 1052.75,638.79 1058.62,639.34 1064.49,639.60 1070.36,639.99 1076.23,640.69 1082.10,640.71 1087.97,640.15 1093.84,637.62 1099.71,640.07 1105.58,638.66 1111.45,640.70 1117.32,639.61 1123.19,638.97 1129.06,639.74 1134.93,640.47 1140.80,640.60 1146.67,640.41 1152.54,640.23 1158.41,640.99" />
<rect x="910" y="50" width="220" height="78" rx="10" fill="#f9fafb" stroke="#e5e7eb" />
<line x1="926" y1="74" x2="966" y2="74" stroke="#2563eb" stroke-width="3" />
<text class="small" x="976" y="79">train loss (100-step mean)</text>
<line x1="926" y1="100" x2="966" y2="100" stroke="#dc2626" stroke-width="3" />
<text class="small" x="976" y="105">validation loss</text>
<line x1="926" y1="118" x2="966" y2="118" stroke="#9ca3af" stroke-width="2" stroke-dasharray="8 6" />
<text class="small" x="976" y="123">resume boundary</text>
<circle cx="1158.41" cy="640.99" r="5" fill="#dc2626" />
<text class="small" x="1168.41" y="630.99">best val: 2.1073</text>
</svg>