<svg xmlns="http://www.w3.org/2000/svg" width="1200" height="720" viewBox="0 0 1200 720">
<style>text{font-family:Arial,sans-serif;fill:#1f2937}.small{font-size:14px}.label{font-size:16px;font-weight:600}.title{font-size:24px;font-weight:700}.tick{font-size:13px;fill:#4b5563}</style>
<rect x="0" y="0" width="1200" height="720" fill="#ffffff" />
<text class="title" x="90" y="30">Decoder Pretraining Loss Curves (rd best from scratch)</text>
<text class="small" x="90" y="55">train: 100-step mean, validation: every 500 steps, early stop at step 80000</text>
<line x1="90" y1="650.00" x2="1160" y2="650.00" stroke="#e5e7eb" stroke-width="1" />
<text class="tick" x="78" y="654.00" text-anchor="end">1.33</text>
<line x1="90" y1="548.33" x2="1160" y2="548.33" stroke="#e5e7eb" stroke-width="1" />
<text class="tick" x="78" y="552.33" text-anchor="end">2.55</text>
<line x1="90" y1="446.67" x2="1160" y2="446.67" stroke="#e5e7eb" stroke-width="1" />
<text class="tick" x="78" y="450.67" text-anchor="end">3.77</text>
<line x1="90" y1="345.00" x2="1160" y2="345.00" stroke="#e5e7eb" stroke-width="1" />
<text class="tick" x="78" y="349.00" text-anchor="end">4.98</text>
<line x1="90" y1="243.33" x2="1160" y2="243.33" stroke="#e5e7eb" stroke-width="1" />
<text class="tick" x="78" y="247.33" text-anchor="end">6.20</text>
<line x1="90" y1="141.67" x2="1160" y2="141.67" stroke="#e5e7eb" stroke-width="1" />
<text class="tick" x="78" y="145.67" text-anchor="end">7.41</text>
<line x1="90" y1="40.00" x2="1160" y2="40.00" stroke="#e5e7eb" stroke-width="1" />
<text class="tick" x="78" y="44.00" text-anchor="end">8.63</text>
<line x1="223.75" y1="40" x2="223.75" y2="650" stroke="#e5e7eb" stroke-width="1" />
<text class="tick" x="223.75" y="672" text-anchor="middle">10000</text>
<line x1="357.50" y1="40" x2="357.50" y2="650" stroke="#e5e7eb" stroke-width="1" />
<text class="tick" x="357.50" y="672" text-anchor="middle">20000</text>
<line x1="625.00" y1="40" x2="625.00" y2="650" stroke="#e5e7eb" stroke-width="1" />
<text class="tick" x="625.00" y="672" text-anchor="middle">40000</text>
<line x1="892.50" y1="40" x2="892.50" y2="650" stroke="#e5e7eb" stroke-width="1" />
<text class="tick" x="892.50" y="672" text-anchor="middle">60000</text>
<line x1="1160.00" y1="40" x2="1160.00" y2="650" stroke="#e5e7eb" stroke-width="1" />
<text class="tick" x="1160.00" y="672" text-anchor="middle">80000</text>
<line x1="1160.00" y1="40" x2="1160.00" y2="650" stroke="#e5e7eb" stroke-width="1" />
<text class="tick" x="1160.00" y="672" text-anchor="middle">80000</text>
<line x1="90" y1="40" x2="90" y2="650" stroke="#111827" stroke-width="1.5" />
<line x1="90" y1="650" x2="1160" y2="650" stroke="#111827" stroke-width="1.5" />
<text class="label" x="625.00" y="702" text-anchor="middle">Training step</text>
<text class="label" transform="translate(24,345.00) rotate(-90)" text-anchor="middle">Cross-entropy loss</text>
<polyline fill="none" stroke="#2563eb" stroke-width="3" points="90.67,67.73 91.34,126.69 92.01,135.27 92.67,150.63 93.34,155.30 94.01,153.16 94.68,176.67 95.35,182.84 96.02,190.07 96.69,200.54 97.36,205.84 98.03,212.18 98.69,222.37 99.36,229.82 100.03,236.20 100.70,247.89 101.37,252.78 102.04,257.74 102.71,264.56 103.38,269.43 104.04,274.07 104.71,278.52 105.38,282.84 106.05,286.59 106.72,290.85 107.39,295.99 108.06,300.63 108.72,305.09 109.39,309.01 110.06,313.88 110.73,317.57 111.40,321.36 112.07,324.99 112.74,328.87 113.41,332.08 114.08,335.09 114.74,338.58 115.41,341.20 116.08,344.84 116.75,347.75 117.42,352.04 118.09,355.66 118.76,358.32 119.42,361.83 120.09,364.92 120.76,367.63 121.43,370.73 122.10,372.66 122.77,374.52 123.44,376.94 124.11,378.65 124.78,381.61 125.44,385.13 126.11,387.41 126.78,389.02 127.45,391.26 128.12,393.94 128.79,396.22 129.46,398.45 130.12,401.53 130.79,403.98 131.46,406.83 132.13,408.83 132.80,410.16 133.47,411.65 134.14,413.45 134.81,415.74 135.47,417.78 136.14,420.12 136.81,422.03 137.48,423.63 138.15,425.45 138.82,427.24 139.49,429.31 140.16,430.31 140.82,431.82 141.49,433.94 142.16,435.67 142.83,436.58 143.50,437.42 144.17,438.33 144.84,440.04 145.51,441.54 146.18,443.17 146.84,444.84 147.51,445.97 148.18,447.55 148.85,449.03 149.52,450.32 150.19,452.45 150.86,453.91 151.53,454.81 152.19,455.50 152.86,456.76 153.53,457.69 154.20,458.51 154.87,459.42 155.54,460.43 156.21,460.91 156.88,461.83 157.54,466.92 158.21,471.01 158.88,475.30 159.55,478.96 160.22,482.60 160.89,487.05 161.56,489.87 162.23,492.95 162.89,496.37 163.56,499.29 164.23,502.50 164.90,505.58 165.57,507.90 166.24,510.30 166.91,512.74 167.57,514.53 168.24,517.00 168.91,519.33 169.58,521.36 170.25,523.51 170.92,525.04 171.59,526.96 172.26,528.78 172.93,530.80 173.59,532.79 174.26,533.80 174.93,535.45 175.60,536.73 176.27,538.11 176.94,538.60 177.61,539.99 178.28,541.01 178.94,542.20 179.61,543.29 180.28,544.62 180.95,546.10 181.62,547.07 182.29,548.27 182.96,548.81 183.62,549.73 184.29,550.16 184.96,551.07 185.63,551.76 186.30,552.48 186.97,553.38 187.64,554.15 188.31,554.44 188.97,555.68 189.64,556.64 190.31,557.35 190.98,558.55 191.65,559.10 192.32,558.90 192.99,559.22 193.66,560.30 194.32,560.82 194.99,561.05 195.66,561.98 196.33,563.16 197.00,563.10 197.67,563.21 198.34,563.35 199.01,563.63 199.68,564.58 200.34,565.30 201.01,565.43 201.68,565.73 202.35,565.94 203.02,565.98 203.69,566.33 204.36,566.40 205.02,566.02 205.69,566.43 206.36,566.20 207.03,566.79 207.70,567.21 208.37,566.82 209.04,567.15 209.71,567.35 210.38,568.01 211.04,568.56 211.71,568.90 212.38,568.92 213.05,569.25 213.72,569.62 214.39,570.54 215.06,570.61 215.72,570.56 216.39,570.96 217.06,570.15 217.73,570.28 218.40,570.41 219.07,571.25 219.74,571.34 220.41,571.78 221.07,572.21 221.74,572.33 222.41,572.92 223.08,573.55 223.75,573.99 224.42,573.59 225.09,573.29 225.76,573.93 226.43,574.06 227.09,574.40 227.76,574.07 228.43,573.92 229.10,574.18 229.77,574.06 230.44,574.70 231.11,574.82 231.78,574.89 232.44,574.91 233.11,574.71 233.78,574.66 234.45,574.51 235.12,574.45 235.79,574.14 236.46,573.96 237.12,573.97 237.79,574.73 238.46,574.96 239.13,575.28 239.80,575.25 240.47,575.18 241.14,576.18 241.81,576.51 242.47,576.62 243.14,576.76 243.81,577.65 244.48,578.02 245.15,578.52 245.82,578.97 246.49,579.10 247.16,579.47 247.82,579.50 248.49,580.28 249.16,580.43 249.83,580.55 250.50,581.05 251.17,581.41 251.84,581.39 252.51,582.35 253.17,582.53 253.84,582.49 254.51,583.05 255.18,583.61 255.85,583.40 256.52,583.54 257.19,583.83 257.86,583.74 258.52,583.45 259.19,583.45 259.86,584.14 260.53,584.17 261.20,584.19 261.87,584.52 262.54,584.10 263.21,583.53 263.88,583.54 264.54,584.00 265.21,583.77 265.88,584.66 266.55,584.86 267.22,585.11 267.89,585.79 268.56,586.26 269.23,586.79 269.89,586.45 270.56,586.49 271.23,586.91 271.90,587.37 272.57,587.76 273.24,587.51 273.91,587.71 274.57,587.93 275.24,588.30 275.91,588.30 276.58,589.12 277.25,589.20 277.92,589.37 278.59,589.07 279.26,589.63 279.92,589.69 280.59,589.13 281.26,588.36 281.93,588.20 282.60,588.46 283.27,588.23 283.94,588.46 284.61,588.25 285.27,588.46 285.94,588.09 286.61,587.98 287.28,588.57 287.95,588.60 288.62,588.95 289.29,588.91 289.96,589.24 290.62,589.26 291.29,589.83 291.96,590.28 292.63,589.61 293.30,589.60 293.97,589.84 294.64,590.21 295.31,590.29 295.98,590.37 296.64,590.45 297.31,589.90 297.98,589.81 298.65,589.57 299.32,589.63 299.99,590.28 300.66,590.68 301.33,590.59 301.99,591.06 302.66,591.99 303.33,592.20 304.00,592.04 304.67,591.96 305.34,592.17 306.01,591.83 306.68,592.31 307.34,592.23 308.01,591.73 308.68,591.39 309.35,591.93 310.02,592.22 310.69,592.02 311.36,591.99 312.02,591.82 312.69,592.21 313.36,592.37 314.03,592.04 314.70,592.04 315.37,591.82 316.04,592.16 316.71,592.17 317.38,592.05 318.04,591.82 318.71,592.14 319.38,591.57 320.05,591.72 320.72,591.73 321.39,591.46 322.06,591.59 322.73,592.20 323.39,592.22 324.06,592.53 324.73,592.80 325.40,592.91 326.07,593.57 326.74,593.89 327.41,593.68 328.08,594.23 328.74,594.22 329.41,594.38 330.08,594.62 330.75,594.74 331.42,594.77 332.09,594.46 332.76,593.95 333.43,593.81 334.09,593.62 334.76,593.26 335.43,592.88 336.10,592.42 336.77,593.27 337.44,593.43 338.11,593.73 338.77,594.24 339.44,593.61 340.11,594.19 340.78,593.88 341.45,593.83 342.12,594.24 342.79,594.27 343.46,593.79 344.12,594.00 344.79,594.77 345.46,595.06 346.13,595.00 346.80,594.73 347.47,595.42 348.14,595.59 348.81,595.85 349.47,595.72 350.14,595.71 350.81,595.65 351.48,595.51 352.15,596.24 352.82,596.60 353.49,596.80 354.16,596.02 354.82,596.17 355.49,596.55 356.16,596.48 356.83,596.72 357.50,596.78 358.17,596.73 358.84,596.82 359.51,597.04 360.18,597.38 360.84,597.47 361.51,597.81 362.18,598.06 362.85,597.97 363.52,597.95 364.19,598.17 364.86,598.45 365.53,598.92 366.19,598.91 366.86,599.30 367.53,598.81 368.20,598.81 368.87,598.64 369.54,598.31 370.21,598.71 370.88,599.41 371.54,599.59 372.21,599.31 372.88,599.94 373.55,599.87 374.22,599.88 374.89,600.15 375.56,599.76 376.23,599.51 376.89,599.65 377.56,600.05 378.23,600.31 378.90,600.79 379.57,600.57 380.24,600.64 380.91,601.09 381.58,601.04 382.24,600.90 382.91,600.95 383.58,601.11 384.25,601.14 384.92,601.79 385.59,601.31 386.26,601.52 386.93,601.63 387.59,601.89 388.26,601.93 388.93,601.57 389.60,601.56 390.27,601.88 390.94,601.94 391.61,601.84 392.27,602.81 392.94,602.85 393.61,602.84 394.28,603.69 394.95,603.33 395.62,603.17 396.29,603.67 396.96,603.45 397.62,603.81 398.29,603.81 398.96,604.35 399.63,604.13 400.30,604.41 400.97,604.64 401.64,605.03 402.31,604.84 402.97,604.88 403.64,604.82 404.31,604.65 404.98,604.36 405.65,604.32 406.32,604.46 406.99,604.48 407.66,604.85 408.32,604.75 408.99,604.30 409.66,604.04 410.33,604.65 411.00,604.71 411.67,604.50 412.34,604.54 413.01,604.26 413.68,604.61 414.34,604.24 415.01,604.62 415.68,604.74 416.35,604.81 417.02,604.95 417.69,605.21 418.36,605.74 419.02,605.11 419.69,605.23 420.36,605.47 421.03,606.01 421.70,605.99 422.37,605.70 423.04,605.78 423.71,605.78 424.38,605.88 425.04,605.99 425.71,605.43 426.38,605.46 427.05,604.98 427.72,605.21 428.39,605.15 429.06,604.75 429.73,605.18 430.39,605.44 431.06,605.74 431.73,606.06 432.40,605.81 433.07,605.68 433.74,605.48 434.41,605.91 435.07,605.86 435.74,606.07 436.41,606.43 437.08,606.08 437.75,605.92 438.42,605.65 439.09,606.07 439.76,605.99 440.43,606.22 441.09,606.13 441.76,605.87 442.43,606.78 443.10,606.88 443.77,607.17 444.44,607.25 445.11,607.73 445.78,607.67 446.44,607.56 447.11,607.71 447.78,607.46 448.45,607.38 449.12,607.52 449.79,607.46 450.46,608.39 451.12,608.74 451.79,609.00 452.46,609.23 453.13,609.32 453.80,608.90 454.47,609.12 455.14,609.01 455.81,609.35 456.48,609.02 457.14,608.93 457.81,609.01 458.48,609.31 459.15,609.00 459.82,609.26 460.49,609.09 461.16,608.77 461.82,609.35 462.49,610.04 463.16,609.88 463.83,610.16 464.50,610.10 465.17,610.25 465.84,610.21 466.51,610.42 467.17,610.21 467.84,610.50 468.51,610.55 469.18,610.75 469.85,610.84 470.52,610.48 471.19,610.35 471.86,610.56 472.52,610.69 473.19,610.88 473.86,610.98 474.53,610.89 475.20,611.25 475.87,611.47 476.54,611.51 477.21,611.25 477.88,611.08 478.54,610.78 479.21,610.44 479.88,610.44 480.55,610.19 481.22,610.07 481.89,610.19 482.56,609.84 483.22,610.33 483.89,610.44 484.56,610.72 485.23,610.40 485.90,610.94 486.57,610.93 487.24,611.12 487.91,611.05 488.57,610.50 489.24,610.73 489.91,610.60 490.58,610.39 491.25,610.65 491.92,610.84 492.59,611.16 493.26,611.29 493.93,611.78 494.59,611.87 495.26,611.85 495.93,612.00 496.60,612.32 497.27,612.30 497.94,611.75 498.61,611.24 499.28,611.70 499.94,612.31 500.61,611.69 501.28,611.72 501.95,612.31 502.62,611.97 503.29,611.78 503.96,612.10 504.62,612.38 505.29,612.49 505.96,612.69 506.63,612.48 507.30,612.29 507.97,612.16 508.64,612.41 509.31,611.99 509.98,612.32 510.64,612.19 511.31,612.12 511.98,611.56 512.65,611.59 513.32,611.83 513.99,611.93 514.66,611.90 515.33,612.10 515.99,612.41 516.66,612.46 517.33,612.49 518.00,612.52 518.67,612.21 519.34,612.53 520.01,612.29 520.67,612.66 521.34,612.41 522.01,612.81 522.68,612.74 523.35,612.78 524.02,612.90 524.69,612.71 525.36,612.28 526.02,611.64 526.69,611.16 527.36,611.16 528.03,610.82 528.70,610.82 529.37,610.69 530.04,610.18 530.71,610.02 531.38,609.71 532.04,609.26 532.71,609.55 533.38,609.38 534.05,609.46 534.72,608.97 535.39,608.46 536.06,608.50 536.72,609.36 537.39,609.05 538.06,609.14 538.73,608.81 539.40,608.60 540.07,608.32 540.74,608.49 541.41,608.73 542.08,608.37 542.74,608.96 543.41,608.71 544.08,608.88 544.75,608.99 545.42,608.99 546.09,609.67 546.76,609.86 547.42,609.97 548.09,610.21 548.76,610.44 549.43,611.07 550.10,610.60 550.77,610.81 551.44,610.67 552.11,610.65 552.77,610.10 553.44,609.82 554.11,609.43 554.78,609.89 555.45,610.64 556.12,610.49 556.79,610.66 557.46,610.24 558.12,610.50 558.79,610.42 559.46,610.77 560.13,610.69 560.80,610.71 561.47,610.42 562.14,610.27 562.81,610.66 563.48,610.15 564.14,610.07 564.81,610.47 565.48,610.70 566.15,610.29 566.82,609.67 567.49,610.42 568.16,610.58 568.83,610.12 569.49,610.08 570.16,610.33 570.83,610.07 571.50,610.08 572.17,610.60 572.84,609.65 573.51,609.96 574.17,609.78 574.84,610.55 575.51,610.91 576.18,610.77 576.85,610.59 577.52,610.22 578.19,610.22 578.86,610.21 579.53,609.98 580.19,609.70 580.86,609.23 581.53,609.46 582.20,609.59 582.87,609.01 583.54,608.69 584.21,607.95 584.88,607.83 585.54,607.62 586.21,607.04 586.88,607.15 587.55,607.20 588.22,606.73 588.89,606.91 589.56,606.92 590.23,606.70 590.89,606.56 591.56,606.88 592.23,607.29 592.90,607.81 593.57,607.51 594.24,607.54 594.91,608.36 595.58,607.89 596.24,607.63 596.91,607.93 597.58,607.92 598.25,607.91 598.92,608.08 599.59,607.87 600.26,607.76 600.92,608.22 601.59,608.28 602.26,608.83 602.93,608.65 603.60,608.04 604.27,608.54 604.94,608.43 605.61,608.91 606.27,608.96 606.94,609.39 607.61,609.05 608.28,609.15 608.95,609.34 609.62,608.54 610.29,609.06 610.96,608.84 611.62,608.75 612.29,608.67 612.96,608.38 613.63,608.41 614.30,608.37 614.97,607.95 615.64,607.34 616.31,606.82 616.98,606.45 617.64,606.34 618.31,605.93 618.98,606.52 619.65,606.62 620.32,607.02 620.99,606.99 621.66,606.50 622.33,606.12 622.99,606.48 623.66,606.16 624.33,606.76 625.00,606.21 625.67,605.99 626.34,605.87 627.01,606.04 627.67,605.63 628.34,605.67 629.01,605.38 629.68,605.08 630.35,605.22 631.02,605.32 631.69,605.24 632.36,605.05 633.02,605.39 633.69,606.23 634.36,605.81 635.03,606.08 635.70,606.36 636.37,606.66 637.04,606.38 637.71,606.57 638.38,605.80 639.04,605.64 639.71,606.38 640.38,606.48 641.05,606.42 641.72,606.54 642.39,606.36 643.06,606.61 643.72,606.24 644.39,606.18 645.06,606.23 645.73,605.97 646.40,606.10 647.07,606.29 647.74,606.91 648.41,606.52 649.07,606.35 649.74,606.76 650.41,606.97 651.08,607.05 651.75,607.00 652.42,606.81 653.09,607.22 653.76,607.53 654.42,607.64 655.09,607.88 655.76,607.56 656.43,608.20 657.10,608.40 657.77,608.95 658.44,608.76 659.11,608.68 659.77,608.34 660.44,608.44 661.11,608.35 661.78,607.15 662.45,607.53 663.12,607.01 663.79,606.78 664.46,607.17 665.12,607.17 665.79,607.36 666.46,607.47 667.13,607.52 667.80,607.11 668.47,607.29 669.14,607.06 669.81,607.39 670.48,607.56 671.14,607.66 671.81,608.09 672.48,608.21 673.15,608.09 673.82,608.30 674.49,608.43 675.16,608.27 675.82,608.12 676.49,608.29 677.16,607.87 677.83,608.22 678.50,608.66 679.17,608.95 679.84,609.07 680.51,608.90 681.17,608.96 681.84,609.17 682.51,609.31 683.18,609.54 683.85,609.83 684.52,609.24 685.19,609.58 685.86,609.49 686.52,609.54 687.19,609.36 687.86,609.43 688.53,609.89 689.20,610.33 689.87,610.08 690.54,610.20 691.21,610.13 691.88,610.34 692.54,610.89 693.21,611.06 693.88,610.88 694.55,611.41 695.22,611.59 695.89,612.21 696.56,612.32 697.23,612.41 697.89,612.50 698.56,612.47 699.23,612.66 699.90,612.09 700.57,611.78 701.24,611.49 701.91,611.26 702.58,611.18 703.24,611.00 703.91,610.72 704.58,611.17 705.25,611.52 705.92,611.46 706.59,611.65 707.26,611.55 707.93,611.46 708.59,611.07 709.26,611.30 709.93,611.22 710.60,611.49 711.27,611.99 711.94,611.84 712.61,612.07 713.27,612.08 713.94,612.07 714.61,611.85 715.28,611.97 715.95,612.29 716.62,612.08 717.29,612.18 717.96,612.43 718.62,612.27 719.29,612.50 719.96,612.18 720.63,611.99 721.30,611.79 721.97,612.43 722.64,612.35 723.31,611.85 723.98,611.59 724.64,611.43 725.31,611.01 725.98,611.18 726.65,611.86 727.32,612.22 727.99,612.60 728.66,613.15 729.33,612.80 729.99,613.52 730.66,613.66 731.33,613.52 732.00,613.67 732.67,614.11 733.34,613.84 734.01,614.34 734.68,614.67 735.34,614.57 736.01,614.65 736.68,614.45 737.35,614.24 738.02,614.51 738.69,614.22 739.36,613.80 740.03,614.05 740.69,614.03 741.36,614.53 742.03,614.73 742.70,614.72 743.37,614.96 744.04,615.29 744.71,615.51 745.38,615.25 746.04,615.10 746.71,614.66 747.38,614.97 748.05,615.24 748.72,615.61 749.39,615.87 750.06,615.67 750.73,615.55 751.39,616.16 752.06,616.15 752.73,616.35 753.40,616.56 754.07,616.54 754.74,616.42 755.41,615.83 756.08,615.53 756.74,615.47 757.41,615.50 758.08,615.96 758.75,615.93 759.42,615.55 760.09,615.14 760.76,615.65 761.42,615.57 762.09,615.54 762.76,615.32 763.43,615.20 764.10,615.41 764.77,615.78 765.44,615.87 766.11,616.15 766.77,616.58 767.44,616.83 768.11,617.23 768.78,617.03 769.45,617.35 770.12,617.47 770.79,617.64 771.46,617.18 772.12,617.49 772.79,617.64 773.46,617.48 774.13,617.08 774.80,617.28 775.47,617.08 776.14,616.89 776.81,616.99 777.47,616.61 778.14,616.25 778.81,616.33 779.48,616.83 780.15,616.86 780.82,616.90 781.49,616.94 782.16,616.95 782.82,616.92 783.49,616.78 784.16,617.14 784.83,617.05 785.50,617.56 786.17,617.82 786.84,618.23 787.51,618.36 788.17,618.40 788.84,618.21 789.51,618.30 790.18,618.29 790.85,618.97 791.52,618.89 792.19,619.26 792.86,619.17 793.52,618.90 794.19,618.63 794.86,618.22 795.53,618.78 796.20,618.67 796.87,618.64 797.54,618.81 798.21,618.61 798.88,618.52 799.54,617.91 800.21,617.96 800.88,617.94 801.55,617.54 802.22,617.73 802.89,618.13 803.56,618.34 804.23,617.99 804.89,617.94 805.56,618.27 806.23,618.06 806.90,618.24 807.57,618.13 808.24,617.29 808.91,617.36 809.57,617.54 810.24,617.83 810.91,617.82 811.58,617.12 812.25,617.47 812.92,617.66 813.59,617.53 814.26,617.75 814.92,618.02 815.59,618.03 816.26,618.19 816.93,618.21 817.60,618.64 818.27,618.47 818.94,618.97 819.61,618.58 820.27,618.32 820.94,618.30 821.61,618.74 822.28,619.10 822.95,619.17 823.62,619.08 824.29,618.97 824.96,618.50 825.62,618.06 826.29,618.09 826.96,618.49 827.63,617.97 828.30,617.94 828.97,617.62 829.64,617.60 830.31,617.44 830.98,617.18 831.64,616.92 832.31,616.72 832.98,616.57 833.65,616.76 834.32,616.22 834.99,616.19 835.66,616.01 836.33,615.64 836.99,615.64 837.66,615.60 838.33,615.66 839.00,615.32 839.67,615.08 840.34,615.00 841.01,615.41 841.68,615.53 842.34,615.80 843.01,616.06 843.68,616.03 844.35,616.72 845.02,616.72 845.69,616.70 846.36,616.08 847.02,616.29 847.69,616.24 848.36,616.15 849.03,616.11 849.70,616.40 850.37,616.23 851.04,615.55 851.71,615.99 852.38,615.46 853.04,615.17 853.71,615.00 854.38,615.31 855.05,614.97 855.72,614.38 856.39,614.47 857.06,614.53 857.73,613.74 858.39,613.49 859.06,613.59 859.73,613.58 860.40,613.39 861.07,613.88 861.74,613.71 862.41,612.77 863.08,613.08 863.74,612.66 864.41,612.87 865.08,612.68 865.75,613.04 866.42,613.13 867.09,613.35 867.76,612.95 868.43,612.78 869.09,612.96 869.76,612.52 870.43,612.44 871.10,613.11 871.77,612.77 872.44,612.56 873.11,612.92 873.78,612.97 874.44,612.84 875.11,613.54 875.78,613.31 876.45,613.33 877.12,612.80 877.79,613.39 878.46,613.71 879.12,613.63 879.79,612.87 880.46,613.26 881.13,613.31 881.80,613.28 882.47,613.09 883.14,612.49 883.81,612.85 884.48,613.19 885.14,613.33 885.81,613.13 886.48,613.39 887.15,613.67 887.82,613.39 888.49,613.44 889.16,612.91 889.83,613.66 890.49,613.95 891.16,614.49 891.83,614.54 892.50,614.88 893.17,615.05 893.84,615.26 894.51,615.57 895.17,615.46 895.84,615.57 896.51,615.69 897.18,616.22 897.85,616.44 898.52,616.15 899.19,616.27 899.86,615.96 900.52,615.67 901.19,615.57 901.86,615.96 902.53,616.25 903.20,616.12 903.87,616.11 904.54,616.02 905.21,616.15 905.88,616.29 906.54,616.70 907.21,616.75 907.88,616.81 908.55,616.13 909.22,616.19 909.89,615.86 910.56,616.01 911.22,615.78 911.89,615.93 912.56,615.96 913.23,615.98 913.90,615.82 914.57,615.71 915.24,615.99 915.91,616.45 916.57,615.72 917.24,616.03 917.91,616.47 918.58,615.82 919.25,615.75 919.92,615.79 920.59,615.81 921.26,615.30 921.92,615.64 922.59,616.32 923.26,616.42 923.93,616.11 924.60,616.71 925.27,616.23 925.94,616.44 926.61,616.66 927.27,616.58 927.94,616.15 928.61,616.29 929.28,616.79 929.95,616.93 930.62,617.47 931.29,617.94 931.96,618.27 932.62,618.19 933.29,618.33 933.96,618.37 934.63,618.44 935.30,618.32 935.97,618.22 936.64,618.36 937.31,618.10 937.98,617.44 938.64,617.19 939.31,617.58 939.98,617.15 940.65,617.04 941.32,616.74 941.99,616.71 942.66,617.08 943.32,617.22 943.99,617.39 944.66,617.01 945.33,617.34 946.00,617.17 946.67,618.37 947.34,618.52 948.01,617.73 948.67,617.04 949.34,617.15 950.01,617.37 950.68,617.35 951.35,616.95 952.02,616.93 952.69,616.91 953.36,616.47 954.02,616.42 954.69,617.08 955.36,616.97 956.03,617.10 956.70,616.53 957.37,616.20 958.04,615.56 958.71,615.23 959.38,615.12 960.04,614.76 960.71,614.10 961.38,614.34 962.05,614.70 962.72,615.17 963.39,615.16 964.06,614.48 964.73,614.35 965.39,614.26 966.06,614.04 966.73,614.43 967.40,614.66 968.07,615.57 968.74,615.56 969.41,615.51 970.08,615.86 970.74,615.81 971.41,616.33 972.08,616.11 972.75,616.13 973.42,615.72 974.09,615.79 974.76,616.07 975.43,616.77 976.09,616.66 976.76,616.32 977.43,616.25 978.10,616.47 978.77,616.36 979.44,616.27 980.11,616.14 980.77,616.26 981.44,616.28 982.11,616.33 982.78,615.91 983.45,616.21 984.12,616.45 984.79,616.34 985.46,616.90 986.12,617.22 986.79,617.31 987.46,617.50 988.13,617.57 988.80,617.30 989.47,617.33 990.14,617.14 990.81,617.28 991.48,617.51 992.14,618.38 992.81,617.62 993.48,617.74 994.15,617.91 994.82,618.49 995.49,618.89 996.16,619.21 996.83,619.06 997.49,618.94 998.16,618.35 998.83,618.50 999.50,618.29 1000.17,618.35 1000.84,618.66 1001.51,619.02 1002.18,619.51 1002.84,619.00 1003.51,619.00 1004.18,619.38 1004.85,619.99 1005.52,620.20 1006.19,620.19 1006.86,621.06 1007.53,620.74 1008.19,620.84 1008.86,620.66 1009.53,620.27 1010.20,620.10 1010.87,619.96 1011.54,620.08 1012.21,619.80 1012.88,619.51 1013.54,619.13 1014.21,619.10 1014.88,619.61 1015.55,619.96 1016.22,620.15 1016.89,619.92 1017.56,619.97 1018.23,619.75 1018.89,619.68 1019.56,619.20 1020.23,619.59 1020.90,619.33 1021.57,619.18 1022.24,619.17 1022.91,619.55 1023.58,619.71 1024.24,620.13 1024.91,620.68 1025.58,620.88 1026.25,620.72 1026.92,620.93 1027.59,621.31 1028.26,620.80 1028.92,620.30 1029.59,620.21 1030.26,620.01 1030.93,620.76 1031.60,621.13 1032.27,621.24 1032.94,621.61 1033.61,621.27 1034.28,621.39 1034.94,621.19 1035.61,621.07 1036.28,621.21 1036.95,621.22 1037.62,621.25 1038.29,621.18 1038.96,621.63 1039.62,621.33 1040.29,621.33 1040.96,621.39 1041.63,621.14 1042.30,620.76 1042.97,620.80 1043.64,621.20 1044.31,621.27 1044.97,621.40 1045.64,621.37 1046.31,621.49 1046.98,621.91 1047.65,621.65 1048.32,622.02 1048.99,621.64 1049.66,622.03 1050.32,622.27 1050.99,621.79 1051.66,621.72 1052.33,621.11 1053.00,621.19 1053.67,621.27 1054.34,620.99 1055.01,621.41 1055.67,621.97 1056.34,621.87 1057.01,621.78 1057.68,621.99 1058.35,621.55 1059.02,621.65 1059.69,621.94 1060.36,621.59 1061.03,621.68 1061.69,621.10 1062.36,621.03 1063.03,620.71 1063.70,621.04 1064.37,621.28 1065.04,621.14 1065.71,620.73 1066.38,620.92 1067.04,620.63 1067.71,620.61 1068.38,620.69 1069.05,620.27 1069.72,620.77 1070.39,620.75 1071.06,620.45 1071.72,620.16 1072.39,620.25 1073.06,619.91 1073.73,619.14 1074.40,619.46 1075.07,619.80 1075.74,619.85 1076.41,619.82 1077.07,619.28 1077.74,619.50 1078.41,619.64 1079.08,619.52 1079.75,619.69 1080.42,619.70 1081.09,619.19 1081.76,619.04 1082.42,619.05 1083.09,618.76 1083.76,619.49 1084.43,619.35 1085.10,619.91 1085.77,619.94 1086.44,620.35 1087.11,620.34 1087.78,620.90 1088.44,620.67 1089.11,620.94 1089.78,620.57 1090.45,620.52 1091.12,620.61 1091.79,620.39 1092.46,620.25 1093.12,620.67 1093.79,621.05 1094.46,621.23 1095.13,621.45 1095.80,621.98 1096.47,621.18 1097.14,621.17 1097.81,621.06 1098.47,620.57 1099.14,620.95 1099.81,620.62 1100.48,620.47 1101.15,620.56 1101.82,619.83 1102.49,619.73 1103.16,619.45 1103.83,619.53 1104.49,619.29 1105.16,619.24 1105.83,618.66 1106.50,618.79 1107.17,619.25 1107.84,619.23 1108.51,619.15 1109.18,620.07 1109.84,620.08 1110.51,620.17 1111.18,620.78 1111.85,620.26 1112.52,620.47 1113.19,620.27 1113.86,620.26 1114.53,620.25 1115.19,619.62 1115.86,619.51 1116.53,619.35 1117.20,619.72 1117.87,619.95 1118.54,620.03 1119.21,620.53 1119.88,620.35 1120.54,620.16 1121.21,620.31 1121.88,620.27 1122.55,620.03 1123.22,619.93 1123.89,620.19 1124.56,620.12 1125.23,620.01 1125.89,619.85 1126.56,619.77 1127.23,619.71 1127.90,619.57 1128.57,620.12 1129.24,619.86 1129.91,619.96 1130.58,619.65 1131.24,619.93 1131.91,619.86 1132.58,619.84 1133.25,620.02 1133.92,620.29 1134.59,620.13 1135.26,619.90 1135.92,620.44 1136.59,620.17 1137.26,620.29 1137.93,620.43 1138.60,620.75 1139.27,621.04 1139.94,620.84 1140.61,621.30 1141.28,620.93 1141.94,620.62 1142.61,620.71 1143.28,621.11 1143.95,621.31 1144.62,621.01 1145.29,620.48 1145.96,620.53 1146.62,620.57 1147.29,620.22 1147.96,621.21 1148.63,620.86 1149.30,620.96 1149.97,620.98 1150.64,620.46 1151.31,620.19 1151.98,619.88 1152.64,620.00 1153.31,619.37 1153.98,619.20 1154.65,618.97 1155.32,618.90 1155.99,618.66 1156.66,619.01 1157.33,618.70 1157.99,618.72 1158.66,618.55 1159.33,619.38 1160.00,618.81" />
<polyline fill="none" stroke="#dc2626" stroke-width="3" points="96.69,247.57 103.38,369.46 110.06,430.33 116.75,470.70 123.44,503.12 130.12,524.69 136.81,536.09 143.50,546.89 150.19,550.46 156.88,556.06 163.56,559.64 170.25,561.15 176.94,565.23 183.62,568.01 190.31,570.31 197.00,571.17 203.69,573.09 210.38,573.26 217.06,576.37 223.75,576.70 230.44,577.98 237.12,579.30 243.81,580.33 250.50,581.10 257.19,581.54 263.88,582.66 270.56,583.80 277.25,584.21 283.94,585.40 290.62,585.80 297.31,586.11 304.00,586.12 310.69,586.94 317.38,587.76 324.06,588.57 330.75,588.34 337.44,589.17 344.12,589.51 350.81,589.36 357.50,590.41 364.19,590.70 370.88,590.73 377.56,592.01 384.25,592.16 390.94,591.89 397.62,592.19 404.31,592.38 411.00,592.40 417.69,592.55 424.38,592.38 431.06,592.87 437.75,593.77 444.44,594.21 451.12,593.87 457.81,594.01 464.50,594.37 471.19,594.06 477.88,594.80 484.56,594.22 491.25,594.37 497.94,594.41 504.62,594.86 511.31,594.93 518.00,595.15 524.69,595.57 531.38,595.59 538.06,595.38 544.75,594.47 551.44,595.22 558.12,595.52 564.81,596.10 571.50,595.64 578.19,595.81 584.88,596.45 591.56,596.48 598.25,596.13 604.94,596.42 611.62,596.63 618.31,596.60 625.00,596.24 631.69,597.03 638.38,596.51 645.06,596.66 651.75,595.85 658.44,597.13 665.12,597.15 671.81,597.73 678.50,598.02 685.19,596.52 691.88,596.96 698.56,596.10 705.25,597.01 711.94,597.62 718.62,597.77 725.31,597.37 732.00,597.55 738.69,596.92 745.38,597.17 752.06,597.91 758.75,597.99 765.44,597.57 772.12,598.19 778.81,598.55 785.50,597.54 792.19,597.36 798.88,597.84 805.56,597.75 812.25,598.16 818.94,598.29 825.62,598.69 832.31,597.47 839.00,597.46 845.69,597.88 852.38,597.95 859.06,598.30 865.75,598.69 872.44,598.49 879.12,598.55 885.81,597.23 892.50,597.63 899.19,597.49 905.88,598.37 912.56,598.67 919.25,598.43 925.94,599.07 932.62,598.13 939.31,597.69 946.00,597.96 952.69,598.25 959.38,598.14 966.06,599.35 972.75,599.15 979.44,598.44 986.12,598.37 992.81,597.95 999.50,598.14 1006.19,598.74 1012.88,598.64 1019.56,599.25 1026.25,599.75 1032.94,597.97 1039.62,597.78 1046.31,598.37 1053.00,598.97 1059.69,599.61 1066.38,598.85 1073.06,599.04 1079.75,598.55 1086.44,597.88 1093.12,598.34 1099.81,598.06 1106.50,598.95 1113.19,599.16 1119.88,598.82 1126.56,598.78 1133.25,598.12 1139.94,598.61 1146.62,598.58 1153.31,598.85 1160.00,598.36" />
<rect x="890" y="50" width="250" height="58" rx="10" fill="#f9fafb" stroke="#e5e7eb" />
<line x1="906" y1="74" x2="946" y2="74" stroke="#2563eb" stroke-width="3" />
<text class="small" x="956" y="79">train loss (100-step mean)</text>
<line x1="906" y1="100" x2="946" y2="100" stroke="#dc2626" stroke-width="3" />
<text class="small" x="956" y="105">validation loss</text>
<circle cx="1026.25" cy="599.75" r="5" fill="#dc2626" />
<text class="small" x="1036.25" y="589.75">best val: 1.9336</text>
</svg>