<svg xmlns="http://www.w3.org/2000/svg" width="1200" height="720" viewBox="0 0 1200 720">
<style>text{font-family:Arial,sans-serif;fill:#1f2937}.small{font-size:14px}.label{font-size:16px;font-weight:600}.title{font-size:24px;font-weight:700}.tick{font-size:13px;fill:#4b5563}</style>
<rect x="0" y="0" width="1200" height="720" fill="#ffffff" />
<text class="title" x="90" y="30">Final From-Scratch Decoder Pretraining</text>
<text class="small" x="90" y="55">train: 100-step mean, validation: raw checkpoints, early stop at step 98000</text>
<line x1="90" y1="649.46" x2="1160" y2="649.46" stroke="#e5e7eb" stroke-width="1" />
<text class="tick" x="78" y="653.46" text-anchor="end">2.05</text>
<line x1="90" y1="548.60" x2="1160" y2="548.60" stroke="#e5e7eb" stroke-width="1" />
<text class="tick" x="78" y="552.60" text-anchor="end">2.95</text>
<line x1="90" y1="446.63" x2="1160" y2="446.63" stroke="#e5e7eb" stroke-width="1" />
<text class="tick" x="78" y="450.63" text-anchor="end">3.86</text>
<line x1="90" y1="344.65" x2="1160" y2="344.65" stroke="#e5e7eb" stroke-width="1" />
<text class="tick" x="78" y="348.65" text-anchor="end">4.77</text>
<line x1="90" y1="243.80" x2="1160" y2="243.80" stroke="#e5e7eb" stroke-width="1" />
<text class="tick" x="78" y="247.80" text-anchor="end">5.67</text>
<line x1="90" y1="141.82" x2="1160" y2="141.82" stroke="#e5e7eb" stroke-width="1" />
<text class="tick" x="78" y="145.82" text-anchor="end">6.58</text>
<line x1="90" y1="39.84" x2="1160" y2="39.84" stroke="#e5e7eb" stroke-width="1" />
<text class="tick" x="78" y="43.84" text-anchor="end">7.49</text>
<line x1="199.17" y1="40" x2="199.17" y2="650" stroke="#e5e7eb" stroke-width="1" />
<text class="tick" x="199.17" y="672" text-anchor="middle">10000</text>
<line x1="308.36" y1="40" x2="308.36" y2="650" stroke="#e5e7eb" stroke-width="1" />
<text class="tick" x="308.36" y="672" text-anchor="middle">20000</text>
<line x1="526.73" y1="40" x2="526.73" y2="650" stroke="#e5e7eb" stroke-width="1" />
<text class="tick" x="526.73" y="672" text-anchor="middle">40000</text>
<line x1="745.10" y1="40" x2="745.10" y2="650" stroke="#e5e7eb" stroke-width="1" />
<text class="tick" x="745.10" y="672" text-anchor="middle">60000</text>
<line x1="963.47" y1="40" x2="963.47" y2="650" stroke="#e5e7eb" stroke-width="1" />
<text class="tick" x="963.47" y="672" text-anchor="middle">80000</text>
<line x1="1160.00" y1="40" x2="1160.00" y2="650" stroke="#e5e7eb" stroke-width="1" />
<text class="tick" x="1160.00" y="672" text-anchor="middle">98000</text>
<line x1="90" y1="40" x2="90" y2="650" stroke="#111827" stroke-width="1.5" />
<line x1="90" y1="650" x2="1160" y2="650" stroke="#111827" stroke-width="1.5" />
<text class="label" x="600.00" y="702" text-anchor="middle">Training step</text>
<text class="label" transform="translate(24,360.00) rotate(-90)" text-anchor="middle">Cross-entropy loss</text>
<polyline fill="none" stroke="#2563eb" stroke-width="3" points="91.08,40.00 92.17,97.43 93.26,168.23 94.36,223.07 95.45,266.87 96.54,304.30 97.63,326.19 98.72,348.45 99.82,351.18 100.91,371.43 102.00,390.94 103.09,403.40 104.18,411.61 105.27,426.74 106.37,426.28 107.46,434.63 108.55,448.62 109.64,451.20 110.73,466.93 111.83,465.53 112.92,475.85 114.01,479.27 115.10,481.43 116.19,489.18 117.29,489.81 118.38,494.37 119.47,497.43 120.56,501.39 121.65,512.84 122.74,510.01 123.84,517.54 124.93,517.46 126.02,524.05 127.11,527.61 128.20,531.97 129.30,532.01 130.39,533.44 131.48,544.65 132.57,550.95 133.66,546.87 134.75,546.16 135.85,544.26 136.94,546.67 138.03,550.94 139.12,554.76 140.21,558.13 141.31,555.82 142.40,557.54 143.49,556.02 144.58,560.98 145.67,560.78 146.77,558.35 147.86,565.85 148.95,562.61 150.04,568.12 151.13,565.49 152.22,565.77 153.32,565.06 154.41,566.81 155.50,568.91 156.59,568.36 157.68,573.30 158.78,566.18 159.87,573.94 160.96,570.02 162.05,574.52 163.14,579.31 164.23,579.67 165.33,572.22 166.42,569.87 167.51,579.31 168.60,581.51 169.69,577.17 170.79,579.96 171.88,588.79 172.97,592.07 174.06,589.46 175.15,587.57 176.25,583.55 177.34,587.54 178.43,588.32 179.52,589.58 180.61,591.99 181.70,591.52 182.80,588.29 183.89,587.68 184.98,586.48 186.07,591.98 187.16,592.63 188.26,584.91 189.35,587.29 190.44,592.00 191.53,595.15 192.62,589.62 193.71,589.75 194.81,593.38 195.90,591.84 196.99,596.86 198.08,591.93 199.17,591.19 200.27,591.32 201.36,599.16 202.45,592.66 203.54,591.90 204.63,597.70 205.72,593.47 206.82,595.63 207.91,590.50 209.00,596.36 210.09,595.21 211.18,597.06 212.28,604.39 213.37,602.31 214.46,600.19 215.55,601.02 216.64,607.54 217.74,605.78 218.83,603.11 219.92,599.39 221.01,606.53 222.10,607.43 223.19,608.38 224.29,605.86 225.38,604.41 226.47,599.84 227.56,601.90 228.65,604.54 229.75,603.16 230.84,605.22 231.93,605.52 233.02,604.61 234.11,598.95 235.20,603.08 236.30,607.41 237.39,601.26 238.48,606.35 239.57,602.14 240.66,602.33 241.76,611.77 242.85,602.23 243.94,606.15 245.03,602.41 246.12,611.30 247.22,607.91 248.31,605.47 249.40,601.84 250.49,614.12 251.58,610.49 252.67,622.58 253.77,612.97 254.86,612.70 255.95,612.01 257.04,619.67 258.13,610.45 259.23,613.69 260.32,606.46 261.41,609.81 262.50,611.29 263.59,606.55 264.68,606.56 265.78,613.91 266.87,610.73 267.96,610.36 269.05,612.15 270.14,617.94 271.24,609.77 272.33,612.70 273.42,611.37 274.51,611.43 275.60,610.79 276.70,611.98 277.79,612.72 278.88,609.14 279.97,607.41 281.06,615.23 282.15,614.25 283.25,611.85 284.34,615.54 285.43,611.31 286.52,610.39 287.61,616.37 288.71,619.45 289.80,618.21 290.89,616.38 291.98,615.80 293.07,619.68 294.16,621.93 295.26,615.99 296.35,618.02 297.44,612.81 298.53,612.67 299.62,622.75 300.72,627.58 301.81,615.58 302.90,618.40 303.99,621.24 305.08,616.57 306.17,617.27 307.27,617.35 308.36,619.22 309.45,612.48 310.54,614.29 311.63,614.03 312.73,614.12 313.82,617.09 314.91,623.03 316.00,623.96 317.09,618.61 318.19,616.53 319.28,618.55 320.37,614.78 321.46,624.58 322.55,611.64 323.64,616.66 324.74,616.26 325.83,621.68 326.92,615.28 328.01,624.80 329.10,616.86 330.20,615.96 331.29,615.08 332.38,627.13 333.47,626.61 334.56,617.71 335.65,628.12 336.75,626.70 337.84,620.50 338.93,618.39 340.02,619.06 341.11,617.88 342.21,623.66 343.30,616.50 344.39,623.47 345.48,621.91 346.57,619.23 347.67,622.07 348.76,621.26 349.85,621.50 350.94,619.04 352.03,625.21 353.12,623.03 354.22,618.27 355.31,622.63 356.40,619.36 357.49,621.14 358.58,626.11 359.68,621.19 360.77,622.87 361.86,626.22 362.95,622.56 364.04,624.43 365.13,617.79 366.23,623.22 367.32,617.76 368.41,616.72 369.50,622.91 370.59,618.96 371.69,622.99 372.78,628.14 373.87,633.49 374.96,628.44 376.05,624.60 377.15,626.87 378.24,624.64 379.33,621.77 380.42,635.92 381.51,624.18 382.60,626.01 383.70,619.46 384.79,631.28 385.88,630.17 386.97,618.98 388.06,624.61 389.16,626.85 390.25,621.51 391.34,622.87 392.43,626.50 393.52,622.99 394.61,623.61 395.71,623.44 396.80,628.22 397.89,624.26 398.98,626.75 400.07,621.93 401.17,623.22 402.26,622.57 403.35,621.98 404.44,622.88 405.53,619.57 406.62,626.80 407.72,626.88 408.81,622.12 409.90,625.71 410.99,627.03 412.08,629.28 413.18,629.08 414.27,629.91 415.36,629.09 416.45,628.36 417.54,629.84 418.64,627.41 419.73,629.73 420.82,632.11 421.91,629.50 423.00,630.66 424.09,628.90 425.19,628.50 426.28,629.11 427.37,626.72 428.46,625.04 429.55,631.18 430.65,627.03 431.74,627.16 432.83,624.62 433.92,628.54 435.01,628.58 436.10,624.91 437.20,625.99 438.29,628.63 439.38,631.35 440.47,629.18 441.56,634.00 442.66,622.14 443.75,630.39 444.84,625.12 445.93,619.10 447.02,622.47 448.12,630.71 449.21,631.44 450.30,620.54 451.39,632.56 452.48,628.88 453.57,631.87 454.67,640.86 455.76,631.99 456.85,636.18 457.94,628.70 459.03,629.33 460.13,626.60 461.22,636.55 462.31,630.93 463.40,630.54 464.49,631.20 465.58,631.10 466.68,626.07 467.77,633.87 468.86,629.60 469.95,629.79 471.04,627.99 472.14,629.63 473.23,627.40 474.32,629.97 475.41,629.50 476.50,628.93 477.60,625.70 478.69,626.71 479.78,632.18 480.87,627.27 481.96,625.93 483.05,629.71 484.15,626.11 485.24,632.56 486.33,633.58 487.42,626.57 488.51,632.40 489.61,625.00 490.70,625.41 491.79,631.36 492.88,626.95 493.97,633.97 495.06,633.82 496.16,634.49 497.25,635.16 498.34,632.80 499.43,626.01 500.52,635.75 501.62,630.20 502.71,635.98 503.80,635.33 504.89,636.81 505.98,631.05 507.07,632.11 508.17,635.37 509.26,629.52 510.35,630.75 511.44,631.61 512.53,633.82 513.63,634.74 514.72,631.30 515.81,632.98 516.90,636.98 517.99,628.80 519.09,628.47 520.18,633.29 521.27,625.25 522.36,625.19 523.45,630.66 524.54,633.73 525.64,636.48 526.73,632.02 527.82,630.28 528.91,631.22 530.00,624.90 531.10,633.33 532.19,631.97 533.28,628.23 534.37,629.98 535.46,634.89 536.55,633.13 537.65,632.13 538.74,633.41 539.83,631.09 540.92,636.60 542.01,626.90 543.11,642.65 544.20,632.75 545.29,642.18 546.38,632.40 547.47,636.29 548.57,636.48 549.66,633.96 550.75,631.26 551.84,632.81 552.93,632.11 554.02,635.98 555.12,634.23 556.21,635.96 557.30,632.32 558.39,634.64 559.48,640.30 560.58,631.97 561.67,636.64 562.76,629.43 563.85,632.09 564.94,629.21 566.03,633.66 567.13,630.65 568.22,635.14 569.31,633.82 570.40,629.77 571.49,635.76 572.59,630.59 573.68,633.58 574.77,638.13 575.86,637.34 576.95,636.47 578.05,641.12 579.14,636.19 580.23,639.00 581.32,635.45 582.41,638.21 583.50,638.08 584.60,633.83 585.69,628.56 586.78,638.76 587.87,636.37 588.96,634.18 590.06,633.63 591.15,638.22 592.24,632.80 593.33,636.49 594.42,636.68 595.51,633.82 596.61,632.31 597.70,633.27 598.79,636.67 599.88,630.69 600.97,637.47 602.07,630.63 603.16,635.71 604.25,630.67 605.34,632.36 606.43,636.66 607.52,633.26 608.62,628.80 609.71,636.68 610.80,635.73 611.89,633.73 612.98,629.74 614.08,637.67 615.17,639.91 616.26,637.04 617.35,635.87 618.44,634.34 619.54,644.92 620.63,634.96 621.72,638.45 622.81,632.28 623.90,634.65 624.99,645.28 626.09,629.39 627.18,640.01 628.27,636.33 629.36,634.48 630.45,634.27 631.55,634.39 632.64,635.20 633.73,633.64 634.82,634.87 635.91,639.26 637.00,634.41 638.10,641.66 639.19,637.34 640.28,637.30 641.37,638.65 642.46,631.66 643.56,633.10 644.65,635.70 645.74,635.48 646.83,633.77 647.92,636.55 649.02,635.05 650.11,633.86 651.20,634.42 652.29,633.38 653.38,639.93 654.47,635.67 655.57,639.01 656.66,644.86 657.75,639.77 658.84,638.38 659.93,636.75 661.03,638.29 662.12,640.24 663.21,637.24 664.30,636.27 665.39,641.67 666.48,636.84 667.58,638.83 668.67,631.59 669.76,636.94 670.85,639.13 671.94,638.51 673.04,633.15 674.13,636.90 675.22,634.57 676.31,639.39 677.40,640.46 678.50,634.98 679.59,636.36 680.68,635.30 681.77,640.13 682.86,640.90 683.95,637.55 685.05,640.52 686.14,636.35 687.23,633.23 688.32,638.10 689.41,636.16 690.51,628.74 691.60,637.55 692.69,635.35 693.78,631.47 694.87,637.33 695.96,641.67 697.06,636.66 698.15,640.74 699.24,639.44 700.33,638.63 701.42,636.52 702.52,643.41 703.61,640.39 704.70,639.10 705.79,635.75 706.88,636.05 707.97,643.27 709.07,637.70 710.16,636.51 711.25,636.15 712.34,639.24 713.43,637.27 714.53,642.11 715.62,639.20 716.71,634.56 717.80,640.29 718.89,635.90 719.99,636.81 721.08,637.14 722.17,639.30 723.26,637.14 724.35,637.78 725.44,636.53 726.54,640.34 727.63,638.08 728.72,639.44 729.81,634.32 730.90,635.48 732.00,635.39 733.09,634.70 734.18,639.06 735.27,640.88 736.36,642.98 737.45,640.42 738.55,645.00 739.64,644.76 740.73,640.72 741.82,639.33 742.91,637.68 744.01,645.32 745.10,640.69 746.19,640.96 747.28,639.08 748.37,636.86 749.47,641.65 750.56,638.60 751.65,637.56 752.74,634.09 753.83,634.26 754.92,635.99 756.02,634.59 757.11,638.26 758.20,639.89 759.29,638.21 760.38,633.95 761.48,633.64 762.57,640.96 763.66,637.85 764.75,639.89 765.84,641.68 766.93,633.53 768.03,633.97 769.12,640.72 770.21,633.33 771.30,638.58 772.39,636.09 773.49,639.01 774.58,637.61 775.67,643.06 776.76,646.43 777.85,638.14 778.95,643.25 780.04,639.88 781.13,639.76 782.22,641.80 783.31,642.58 784.40,643.49 785.50,637.89 786.59,638.86 787.68,636.74 788.77,643.49 789.86,642.97 790.96,641.52 792.05,635.79 793.14,643.43 794.23,640.41 795.32,643.83 796.41,633.25 797.51,638.99 798.60,643.75 799.69,637.17 800.78,634.64 801.87,642.51 802.97,636.95 804.06,641.66 805.15,634.15 806.24,635.77 807.33,639.04 808.42,641.62 809.52,638.10 810.61,645.74 811.70,635.29 812.79,643.93 813.88,633.51 814.98,639.36 816.07,641.92 817.16,640.00 818.25,640.54 819.34,639.34 820.44,643.46 821.53,645.35 822.62,648.79 823.71,637.64 824.80,641.55 825.89,641.47 826.99,640.83 828.08,642.88 829.17,635.23 830.26,643.77 831.35,638.04 832.45,636.06 833.54,643.56 834.63,637.74 835.72,640.81 836.81,644.52 837.90,641.39 839.00,643.38 840.09,636.36 841.18,640.98 842.27,636.75 843.36,639.40 844.46,639.93 845.55,637.07 846.64,637.94 847.73,641.28 848.82,638.18 849.92,638.28 851.01,639.53 852.10,632.79 853.19,644.42 854.28,634.87 855.37,640.10 856.47,645.74 857.56,646.15 858.65,645.39 859.74,643.69 860.83,644.25 861.93,645.01 863.02,647.24 864.11,640.92 865.20,640.36 866.29,638.48 867.38,644.22 868.48,633.18 869.57,645.63 870.66,640.72 871.75,640.17 872.84,640.95 873.94,641.94 875.03,639.99 876.12,640.06 877.21,637.14 878.30,642.47 879.40,639.07 880.49,639.81 881.58,639.59 882.67,639.05 883.76,637.16 884.85,640.74 885.95,639.11 887.04,641.64 888.13,642.64 889.22,637.90 890.31,640.96 891.41,638.88 892.50,639.22 893.59,639.95 894.68,641.94 895.77,636.37 896.86,643.40 897.96,645.53 899.05,645.14 900.14,647.22 901.23,645.40 902.32,644.00 903.42,642.43 904.51,644.15 905.60,640.26 906.69,643.78 907.78,641.22 908.87,641.39 909.97,639.81 911.06,648.77 912.15,637.96 913.24,644.23 914.33,641.39 915.43,645.82 916.52,639.99 917.61,639.54 918.70,641.41 919.79,640.75 920.89,639.21 921.98,638.85 923.07,640.32 924.16,641.00 925.25,639.41 926.34,638.89 927.44,642.09 928.53,640.16 929.62,637.27 930.71,642.65 931.80,640.06 932.90,637.10 933.99,638.78 935.08,640.31 936.17,639.66 937.26,646.60 938.35,642.73 939.45,642.66 940.54,645.79 941.63,646.89 942.72,644.89 943.81,643.87 944.91,642.82 946.00,643.93 947.09,640.40 948.18,642.21 949.27,648.36 950.37,642.51 951.46,642.82 952.55,642.62 953.64,640.35 954.73,642.51 955.82,647.52 956.92,636.85 958.01,640.59 959.10,642.32 960.19,639.20 961.28,643.71 962.38,640.37 963.47,639.38 964.56,638.62 965.65,636.98 966.74,644.27 967.83,639.83 968.93,643.89 970.02,639.76 971.11,639.93 972.20,637.67 973.29,636.79 974.39,640.55 975.48,642.76 976.57,641.00 977.66,648.82 978.75,647.26 979.85,645.19 980.94,640.38 982.03,645.44 983.12,646.47 984.21,643.22 985.30,645.62 986.40,643.44 987.49,641.91 988.58,640.24 989.67,642.35 990.76,646.76 991.86,644.26 992.95,642.34 994.04,644.79 995.13,643.95 996.22,644.27 997.31,639.94 998.41,642.31 999.50,641.39 1000.59,640.00 1001.68,643.21 1002.77,642.28 1003.87,643.94 1004.96,637.47 1006.05,637.29 1007.14,642.89 1008.23,641.82 1009.32,642.48 1010.42,639.50 1011.51,637.40 1012.60,639.47 1013.69,642.14 1014.78,645.27 1015.88,644.62 1016.97,642.99 1018.06,647.36 1019.15,646.33 1020.24,643.94 1021.34,645.08 1022.43,646.05 1023.52,642.53 1024.61,646.19 1025.70,645.61 1026.79,644.82 1027.89,649.02 1028.98,645.48 1030.07,639.43 1031.16,647.94 1032.25,645.96 1033.35,641.54 1034.44,641.02 1035.53,644.21 1036.62,641.87 1037.71,636.17 1038.80,645.79 1039.90,641.63 1040.99,641.76 1042.08,643.19 1043.17,645.89 1044.26,638.89 1045.36,644.37 1046.45,638.96 1047.54,645.90 1048.63,639.46 1049.72,638.63 1050.82,641.84 1051.91,642.35 1053.00,641.06 1054.09,637.61 1055.18,641.31 1056.27,639.87 1057.37,648.32 1058.46,642.53 1059.55,644.28 1060.64,642.43 1061.73,646.15 1062.83,647.15 1063.92,645.73 1065.01,644.69 1066.10,639.82 1067.19,643.54 1068.28,646.86 1069.38,645.14 1070.47,647.85 1071.56,641.74 1072.65,646.09 1073.74,648.59 1074.84,644.72 1075.93,644.55 1077.02,643.65 1078.11,645.00 1079.20,643.84 1080.30,645.41 1081.39,644.15 1082.48,637.32 1083.57,644.30 1084.66,641.47 1085.75,639.65 1086.85,641.84 1087.94,644.18 1089.03,640.07 1090.12,642.62 1091.21,644.19 1092.31,644.92 1093.40,641.27 1094.49,643.81 1095.58,640.24 1096.67,637.12 1097.76,649.49 1098.86,644.21 1099.95,645.30 1101.04,645.01 1102.13,640.84 1103.22,646.93 1104.32,646.56 1105.41,647.00 1106.50,644.58 1107.59,646.65 1108.68,640.59 1109.77,643.96 1110.87,644.74 1111.96,647.19 1113.05,643.44 1114.14,643.88 1115.23,640.48 1116.33,643.24 1117.42,647.74 1118.51,646.60 1119.60,643.25 1120.69,640.75 1121.79,643.23 1122.88,642.94 1123.97,641.41 1125.06,644.70 1126.15,646.10 1127.24,646.17 1128.34,643.44 1129.43,642.60 1130.52,641.27 1131.61,644.95 1132.70,645.98 1133.80,637.55 1134.89,639.64 1135.98,644.43 1137.07,648.29 1138.16,641.18 1139.25,644.40 1140.35,642.89 1141.44,641.72 1142.53,645.93 1143.62,648.64 1144.71,644.48 1145.81,650.00 1146.90,646.36 1147.99,643.59 1149.08,648.88 1150.17,643.18 1151.27,642.17 1152.36,643.88 1153.45,641.50 1154.54,648.62 1155.63,640.95 1156.72,643.59 1157.82,644.86 1158.91,643.23 1160.00,641.85" />
<polyline fill="none" stroke="#dc2626" stroke-width="3" points="95.45,305.75 100.91,398.56 106.37,451.59 111.83,484.84 117.29,511.98 122.74,532.84 128.20,549.00 133.66,559.26 139.12,568.61 144.58,575.46 150.04,580.91 155.50,584.28 160.96,588.60 166.42,595.54 171.88,597.24 177.34,599.68 182.80,601.64 188.26,602.65 193.71,606.74 199.17,607.88 204.63,608.81 210.09,612.70 215.55,611.85 221.01,612.32 226.47,614.03 231.93,614.24 237.39,616.73 242.85,619.06 248.31,618.38 253.77,620.29 259.23,620.97 264.68,621.09 270.14,620.93 275.60,622.69 281.06,625.13 286.52,623.69 291.98,624.04 297.44,625.59 302.90,625.04 308.36,625.58 313.82,626.61 319.28,625.30 324.74,628.33 330.20,627.70 335.65,627.05 341.11,628.29 346.57,628.81 352.03,628.57 357.49,629.41 362.95,629.90 368.41,630.03 373.87,630.83 379.33,630.50 384.79,631.70 390.25,631.65 395.71,632.02 401.17,631.32 406.62,632.70 412.08,631.67 417.54,632.02 423.00,632.52 428.46,631.97 433.92,633.32 439.38,634.20 444.84,633.85 450.30,634.44 455.76,633.33 461.22,634.52 466.68,635.02 472.14,634.46 477.60,635.87 483.05,633.91 488.51,636.34 493.97,636.41 499.43,635.97 504.89,635.47 510.35,636.42 515.81,637.20 521.27,637.25 526.73,635.32 532.19,636.48 537.65,635.57 543.11,636.25 548.57,636.25 554.02,637.39 559.48,638.82 564.94,639.24 570.40,638.79 575.86,638.21 581.32,637.02 586.78,636.70 592.24,637.54 597.70,638.19 603.16,638.64 608.62,637.63 614.08,638.81 619.54,640.15 624.99,638.83 630.45,638.29 635.91,640.26 641.37,639.41 646.83,639.21 652.29,638.47 657.75,638.28 663.21,637.88 668.67,639.35 674.13,638.99 679.59,639.49 685.05,640.14 690.51,641.09 695.96,640.48 701.42,640.28 706.88,638.90 712.34,639.61 717.80,640.67 723.26,641.48 728.72,641.53 734.18,640.09 739.64,639.47 745.10,641.07 750.56,640.51 756.02,642.09 761.48,641.47 766.93,642.10 772.39,641.28 777.85,640.04 783.31,640.16 788.77,640.59 794.23,640.08 799.69,640.83 805.15,641.60 810.61,642.11 816.07,642.53 821.53,642.57 826.99,640.39 832.45,641.10 837.90,641.68 843.36,641.48 848.82,642.60 854.28,641.98 859.74,640.74 865.20,641.19 870.66,641.52 876.12,642.00 881.58,642.42 887.04,640.59 892.50,642.08 897.96,641.40 903.42,640.55 908.87,641.22 914.33,641.52 919.79,643.45 925.25,643.24 930.71,643.54 936.17,642.11 941.63,644.27 947.09,641.39 952.55,641.16 958.01,642.50 963.47,642.03 968.93,642.41 974.39,642.34 979.85,641.40 985.30,642.14 990.76,642.83 996.22,643.50 1001.68,641.87 1007.14,643.70 1012.60,643.52 1018.06,642.57 1023.52,642.91 1028.98,641.82 1034.44,641.89 1039.90,642.34 1045.36,643.49 1050.82,644.82 1056.27,644.29 1061.73,642.90 1067.19,643.67 1072.65,642.11 1078.11,642.87 1083.57,644.16 1089.03,643.42 1094.49,643.63 1099.95,643.24 1105.41,641.96 1110.87,643.66 1116.33,642.95 1121.79,643.55 1127.24,642.59 1132.70,643.40 1138.16,643.28 1143.62,643.65 1149.08,644.19 1154.54,643.10 1160.00,644.30" />
<rect x="910" y="50" width="220" height="58" rx="10" fill="#f9fafb" stroke="#e5e7eb" />
<line x1="926" y1="74" x2="966" y2="74" stroke="#2563eb" stroke-width="3" />
<text class="small" x="976" y="79">train loss (100-step mean)</text>
<line x1="926" y1="100" x2="966" y2="100" stroke="#dc2626" stroke-width="3" />
<text class="small" x="976" y="105">validation loss</text>
<circle cx="1050.82" cy="644.82" r="5" fill="#dc2626" />
<text class="small" x="1060.82" y="634.82">best val: 2.0914</text>
</svg>